{
  "asset": {
    "generator": "Khronos glTF Blender I/O v4.1.63",
    "version": "2.0"
  },
  "extensionsUsed": [
    "KHR_materials_transmission",
    "KHR_materials_ior"
  ],
  "scene": 0,
  "scenes": [
    {
      "name": "Scene",
      "nodes": [
        23,
        24,
        25,
        28,
        29
      ]
    }
  ],
  "nodes": [
    {
      "mesh": 0,
      "name": "Cube",
      "scale": [
        0.27580952644348145,
        0.27580952644348145,
        0.27580952644348145
      ],
      "translation": [
        -0.5418756008148193,
        0.0616147518157959,
        0.07815906405448914
      ]
    },
    {
      "mesh": 0,
      "name": "Cube.001",
      "scale": [
        0.19871293008327484,
        0.19871293008327484,
        0.19871293008327484
      ],
      "translation": [
        -0.6408547163009644,
        0.31398507952690125,
        -0.20772413909435272
      ]
    },
    {
      "mesh": 0,
      "name": "Cube.002",
      "scale": [
        0.17279791831970215,
        0.17279791831970215,
        0.17279791831970215
      ],
      "translation": [
        0.08260583877563477,
        0.4059089124202728,
        -0.47250744700431824
      ]
    },
    {
      "mesh": 0,
      "name": "Cube.003",
      "scale": [
        0.1758955866098404,
        0.1758955866098404,
        0.1758955866098404
      ],
      "translation": [
        0.4246255159378052,
        0.3370981514453888,
        -0.4275495707988739
      ]
    },
    {
      "mesh": 0,
      "name": "Cube.004",
      "rotation": [
        0.025362392887473106,
        0.21847432851791382,
        0.3487124741077423,
        0.9110572934150696
      ],
      "scale": [
        0.1617501676082611,
        0.16175015270709991,
        0.1617501974105835
      ],
      "translation": [
        -0.6856421232223511,
        0.2800273001194,
        0.16068962216377258
      ]
    },
    {
      "mesh": 0,
      "name": "Cube.005",
      "scale": [
        0.17647279798984528,
        0.17647279798984528,
        0.17647279798984528
      ],
      "translation": [
        -0.4677835702896118,
        0.37845614552497864,
        0.01730389893054962
      ]
    },
    {
      "mesh": 0,
      "name": "Cube.006",
      "scale": [
        0.17061766982078552,
        0.17061766982078552,
        0.17061766982078552
      ],
      "translation": [
        -0.35538649559020996,
        0.3516615927219391,
        -0.5330231189727783
      ]
    },
    {
      "mesh": 0,
      "name": "Cube.007",
      "scale": [
        0.17259575426578522,
        0.17259575426578522,
        0.17259575426578522
      ],
      "translation": [
        0.11753666400909424,
        0.43729349970817566,
        -0.04928050935268402
      ]
    },
    {
      "mesh": 0,
      "name": "Cube.008",
      "rotation": [
        0.03681110590696335,
        0.3170943856239319,
        0.5061222314834595,
        0.8012094497680664
      ],
      "scale": [
        0.17214335501194,
        0.1721433401107788,
        0.17214335501194
      ],
      "translation": [
        -0.25847697257995605,
        0.29723694920539856,
        0.5116913914680481
      ]
    },
    {
      "mesh": 0,
      "name": "Cube.009",
      "rotation": [
        0.060315851122140884,
        0.5195669531822205,
        0.8292936682701111,
        0.19668300449848175
      ],
      "scale": [
        0.16109196841716766,
        0.16109196841716766,
        0.16109199821949005
      ],
      "translation": [
        -0.4032292366027832,
        0.2132490873336792,
        0.5879969596862793
      ]
    },
    {
      "mesh": 0,
      "name": "Cube.010",
      "rotation": [
        0.021836059167981148,
        0.18809807300567627,
        0.3002280294895172,
        0.9348825812339783
      ],
      "scale": [
        0.18748615682125092,
        0.18748611211776733,
        0.18748612701892853
      ],
      "translation": [
        0.4125005006790161,
        0.3656213581562042,
        0.05707462131977081
      ]
    },
    {
      "mesh": 0,
      "name": "Cube.011",
      "rotation": [
        0.030010893940925598,
        0.2585170269012451,
        0.4126254916191101,
        0.8729311227798462
      ],
      "scale": [
        -0.14002864062786102,
        -0.14002862572669983,
        -0.14002862572669983
      ],
      "translation": [
        -0.2050788402557373,
        0.4442403018474579,
        0.04888060688972473
      ]
    },
    {
      "mesh": 0,
      "name": "Cube.012",
      "rotation": [
        0.016158301383256912,
        0.13918906450271606,
        0.22216284275054932,
        0.9648880958557129
      ],
      "scale": [
        0.12780693173408508,
        0.1278069168329239,
        0.12780693173408508
      ],
      "translation": [
        0.23196101188659668,
        0.3753185570240021,
        0.3749549984931946
      ]
    },
    {
      "mesh": 0,
      "name": "Cube.013",
      "scale": [
        0.15131719410419464,
        0.15131719410419464,
        0.15131719410419464
      ],
      "translation": [
        -0.13440418243408203,
        0.430862694978714,
        -0.26689815521240234
      ]
    },
    {
      "mesh": 0,
      "name": "Cube.014",
      "scale": [
        0.17830631136894226,
        0.17830631136894226,
        0.17830631136894226
      ],
      "translation": [
        0.022571444511413574,
        0.34343066811561584,
        0.4812195301055908
      ]
    },
    {
      "mesh": 0,
      "name": "Cube.015",
      "rotation": [
        -0.015028489753603935,
        -0.12945689260959625,
        -0.20662938058376312,
        0.9697007536888123
      ],
      "scale": [
        0.2035708725452423,
        0.2035708725452423,
        0.2035708725452423
      ],
      "translation": [
        -0.030600428581237793,
        0.300618439912796,
        -0.6897329092025757
      ]
    },
    {
      "mesh": 0,
      "name": "Cube.016",
      "scale": [
        0.18438677489757538,
        0.18438677489757538,
        0.18438677489757538
      ],
      "translation": [
        0.08260583877563477,
        0.4059089124202728,
        -0.47250744700431824
      ]
    },
    {
      "mesh": 0,
      "name": "Cube.017",
      "scale": [
        0.14375931024551392,
        0.14375931024551392,
        0.14375931024551392
      ],
      "translation": [
        0.25831687450408936,
        0.23480889201164246,
        0.6737332344055176
      ]
    },
    {
      "mesh": 0,
      "name": "Cube.018",
      "scale": [
        0.14375931024551392,
        0.14375931024551392,
        0.14375931024551392
      ],
      "translation": [
        -0.12097179889678955,
        0.39918646216392517,
        0.22799399495124817
      ]
    },
    {
      "mesh": 0,
      "name": "Cube.019",
      "rotation": [
        0.06031583249568939,
        0.5195669531822205,
        0.8292936682701111,
        0.19668295979499817
      ],
      "scale": [
        0.1765657365322113,
        0.1765657216310501,
        0.1765657514333725
      ],
      "translation": [
        -0.07892215251922607,
        0.21122723817825317,
        0.6726863980293274
      ]
    },
    {
      "mesh": 0,
      "name": "Cube.020",
      "rotation": [
        0.06031583622097969,
        0.5195669531822205,
        0.8292936682701111,
        0.19668301939964294
      ],
      "scale": [
        0.13140277564525604,
        0.13140280544757843,
        0.13140280544757843
      ],
      "translation": [
        -0.4340975284576416,
        0.33320680260658264,
        0.37976503372192383
      ]
    },
    {
      "mesh": 0,
      "name": "Cube.021",
      "rotation": [
        0.060315851122140884,
        0.5195669531822205,
        0.8292936682701111,
        0.19668300449848175
      ],
      "scale": [
        0.16109196841716766,
        0.16109196841716766,
        0.16109199821949005
      ],
      "translation": [
        0.4265216588973999,
        0.3296843469142914,
        0.5068928599357605
      ]
    },
    {
      "mesh": 0,
      "name": "Cube.022",
      "scale": [
        0.17279791831970215,
        0.17279791831970215,
        0.17279791831970215
      ],
      "translation": [
        0.7654269933700562,
        0.22982382774353027,
        -0.10530811548233032
      ]
    },
    {
      "children": [
        0,
        1,
        2,
        3,
        4,
        5,
        6,
        7,
        8,
        9,
        10,
        11,
        12,
        13,
        14,
        15,
        16,
        17,
        18,
        19,
        20,
        21,
        22
      ],
      "mesh": 1,
      "name": "Circle.003",
      "scale": [
        2.7565908432006836,
        2.7565908432006836,
        2.7565908432006836
      ],
      "translation": [
        4.532499313354492,
        0.7039858102798462,
        0.4530719518661499
      ]
    },
    {
      "mesh": 2,
      "name": "Circle.004",
      "scale": [
        1.8257571458816528,
        1.8257571458816528,
        1.8257571458816528
      ],
      "translation": [
        1.3404455184936523,
        0.05796016752719879,
        3.08021879196167
      ]
    },
    {
      "mesh": 3,
      "name": "Circle.005",
      "scale": [
        1.192692518234253,
        1.192692518234253,
        1.192692518234253
      ],
      "translation": [
        -0.01970815658569336,
        0.032736778259277344,
        0.11957168579101562
      ]
    },
    {
      "mesh": 4,
      "name": "Circle.013",
      "scale": [
        1.287926435470581,
        1.287926435470581,
        1.371852159500122
      ],
      "translation": [
        0.29292458295822144,
        -0.4679008722305298,
        -0.30982500314712524
      ]
    },
    {
      "mesh": 5,
      "name": "Circle.014",
      "scale": [
        1.287926435470581,
        1.287926435470581,
        1.287926435470581
      ],
      "translation": [
        0.020633399486541748,
        -0.6902260780334473,
        0.05980461835861206
      ]
    },
    {
      "children": [
        26,
        27
      ],
      "mesh": 6,
      "name": "Circle.012",
      "rotation": [
        0,
        0.2713603377342224,
        0,
        0.9624778628349304
      ],
      "scale": [
        1.3831650018692017,
        1.3831650018692017,
        1.3831650018692017
      ],
      "translation": [
        -1.866957187652588,
        0.48273324966430664,
        -1.628759741783142
      ]
    },
    {
      "mesh": 2,
      "name": "Circle.001",
      "rotation": [
        -0.17985008656978607,
        0.8880467414855957,
        0.05316447094082832,
        0.41976240277290344
      ],
      "scale": [
        1.6882485151290894,
        1.688248634338379,
        1.688248634338379
      ],
      "translation": [
        -0.5440490245819092,
        0.8003420829772949,
        3.8479998111724854
      ]
    }
  ],
  "materials": [
    {
      "doubleSided": true,
      "name": "Choco",
      "pbrMetallicRoughness": {
        "baseColorFactor": [
          0.07836583256721497,
          0.017097502946853638,
          0.0037280276883393526,
          1
        ],
        "metallicFactor": 0,
        "roughnessFactor": 0.699999988079071
      }
    },
    {
      "doubleSided": true,
      "name": "Cookie",
      "pbrMetallicRoughness": {
        "baseColorFactor": [
          0.2215324491262436,
          0.06513229012489319,
          0.006185273174196482,
          1
        ],
        "metallicFactor": 0
      }
    },
    {
      "doubleSided": true,
      "name": "Cookie.001",
      "pbrMetallicRoughness": {
        "baseColorFactor": [
          0.5121567249298096,
          0.13555733859539032,
          0.015422322787344456,
          1
        ],
        "metallicFactor": 0
      }
    },
    {
      "doubleSided": true,
      "name": "White",
      "pbrMetallicRoughness": {
        "baseColorFactor": [
          0.800000011920929,
          0.800000011920929,
          0.800000011920929,
          1
        ],
        "metallicFactor": 0,
        "roughnessFactor": 0.20000000298023224
      }
    },
    {
      "doubleSided": true,
      "extensions": {
        "KHR_materials_transmission": {
          "transmissionFactor": 1
        },
        "KHR_materials_ior": {
          "ior": 1.4500000476837158
        }
      },
      "name": "coffee",
      "pbrMetallicRoughness": {
        "baseColorFactor": [
          0.4262978136539459,
          0.1674574315547943,
          0.07234980165958405,
          1
        ],
        "metallicFactor": 0,
        "roughnessFactor": 0.5
      }
    }
  ],
  "meshes": [
    {
      "name": "Cube",
      "primitives": [
        {
          "attributes": {
            "POSITION": 0,
            "NORMAL": 1,
            "TEXCOORD_0": 2
          },
          "indices": 3,
          "material": 0
        }
      ]
    },
    {
      "name": "Circle.003",
      "primitives": [
        {
          "attributes": {
            "POSITION": 4,
            "NORMAL": 5,
            "TEXCOORD_0": 6
          },
          "indices": 7,
          "material": 1
        }
      ]
    },
    {
      "name": "Circle.004",
      "primitives": [
        {
          "attributes": {
            "POSITION": 8,
            "NORMAL": 9,
            "TEXCOORD_0": 10
          },
          "indices": 11,
          "material": 2
        }
      ]
    },
    {
      "name": "Circle.005",
      "primitives": [
        {
          "attributes": {
            "POSITION": 12,
            "NORMAL": 13,
            "TEXCOORD_0": 14
          },
          "indices": 15
        }
      ]
    },
    {
      "name": "Circle.013",
      "primitives": [
        {
          "attributes": {
            "POSITION": 16,
            "NORMAL": 17,
            "TEXCOORD_0": 18
          },
          "indices": 19,
          "material": 3
        }
      ]
    },
    {
      "name": "Circle.014",
      "primitives": [
        {
          "attributes": {
            "POSITION": 20,
            "NORMAL": 21,
            "TEXCOORD_0": 22
          },
          "indices": 23,
          "material": 3
        }
      ]
    },
    {
      "name": "Circle.012",
      "primitives": [
        {
          "attributes": {
            "POSITION": 24,
            "NORMAL": 25,
            "TEXCOORD_0": 26
          },
          "indices": 27,
          "material": 4
        }
      ]
    }
  ],
  "accessors": [
    {
      "bufferView": 0,
      "componentType": 5126,
      "count": 1536,
      "max": [
        0.5398861765861511,
        0.3078710436820984,
        0.542530357837677
      ],
      "min": [
        -0.32407939434051514,
        -0.48931482434272766,
        -0.5230742692947388
      ],
      "type": "VEC3"
    },
    {
      "bufferView": 1,
      "componentType": 5126,
      "count": 1536,
      "type": "VEC3"
    },
    {
      "bufferView": 2,
      "componentType": 5126,
      "count": 1536,
      "type": "VEC2"
    },
    {
      "bufferView": 3,
      "componentType": 5123,
      "count": 2292,
      "type": "SCALAR"
    },
    {
      "bufferView": 4,
      "componentType": 5126,
      "count": 60,
      "max": [
        0.9339795112609863,
        0.42910218238830566,
        0.9339795112609863
      ],
      "min": [
        -0.9339795112609863,
        0,
        -0.9339795112609863
      ],
      "type": "VEC3"
    },
    {
      "bufferView": 5,
      "componentType": 5126,
      "count": 60,
      "type": "VEC3"
    },
    {
      "bufferView": 6,
      "componentType": 5126,
      "count": 60,
      "type": "VEC2"
    },
    {
      "bufferView": 7,
      "componentType": 5123,
      "count": 348,
      "type": "SCALAR"
    },
    {
      "bufferView": 8,
      "componentType": 5126,
      "count": 80,
      "max": [
        0.9978914856910706,
        0.9267388582229614,
        0.9978914856910706
      ],
      "min": [
        -0.9978914856910706,
        -0.2426350712776184,
        -0.9978914856910706
      ],
      "type": "VEC3"
    },
    {
      "bufferView": 9,
      "componentType": 5126,
      "count": 80,
      "type": "VEC3"
    },
    {
      "bufferView": 10,
      "componentType": 5126,
      "count": 80,
      "type": "VEC2"
    },
    {
      "bufferView": 11,
      "componentType": 5123,
      "count": 468,
      "type": "SCALAR"
    },
    {
      "bufferView": 12,
      "componentType": 5126,
      "count": 96,
      "max": [
        6.554816246032715,
        0.7415159940719604,
        6.554816246032715
      ],
      "min": [
        -6.554816722869873,
        -0.11724221706390381,
        -6.554816246032715
      ],
      "type": "VEC3"
    },
    {
      "bufferView": 13,
      "componentType": 5126,
      "count": 96,
      "type": "VEC3"
    },
    {
      "bufferView": 14,
      "componentType": 5126,
      "count": 96,
      "type": "VEC2"
    },
    {
      "bufferView": 15,
      "componentType": 5123,
      "count": 564,
      "type": "SCALAR"
    },
    {
      "bufferView": 16,
      "componentType": 5126,
      "count": 14,
      "max": [
        3.04597544670105,
        1.800406575202942,
        1.394646167755127
      ],
      "min": [
        0.18751859664916992,
        0.13554346561431885,
        0.5038643479347229
      ],
      "type": "VEC3"
    },
    {
      "bufferView": 17,
      "componentType": 5126,
      "count": 14,
      "type": "VEC3"
    },
    {
      "bufferView": 18,
      "componentType": 5126,
      "count": 14,
      "type": "VEC2"
    },
    {
      "bufferView": 19,
      "componentType": 5123,
      "count": 36,
      "type": "SCALAR"
    },
    {
      "bufferView": 20,
      "componentType": 5126,
      "count": 72,
      "max": [
        1.9637480974197388,
        2.1891279220581055,
        1.9637480974197388
      ],
      "min": [
        -1.9637480974197388,
        0,
        -1.9637480974197388
      ],
      "type": "VEC3"
    },
    {
      "bufferView": 21,
      "componentType": 5126,
      "count": 72,
      "type": "VEC3"
    },
    {
      "bufferView": 22,
      "componentType": 5126,
      "count": 72,
      "type": "VEC2"
    },
    {
      "bufferView": 23,
      "componentType": 5123,
      "count": 390,
      "type": "SCALAR"
    },
    {
      "bufferView": 24,
      "componentType": 5126,
      "count": 256,
      "max": [
        1.9704763889312744,
        1.6775462627410889,
        1.9704763889312744
      ],
      "min": [
        -1.9704763889312744,
        -0.19728843867778778,
        -1.9704763889312744
      ],
      "type": "VEC3"
    },
    {
      "bufferView": 25,
      "componentType": 5126,
      "count": 256,
      "type": "VEC3"
    },
    {
      "bufferView": 26,
      "componentType": 5126,
      "count": 256,
      "type": "VEC2"
    },
    {
      "bufferView": 27,
      "componentType": 5123,
      "count": 1524,
      "type": "SCALAR"
    }
  ],
  "bufferViews": [
    {
      "buffer": 0,
      "byteLength": 18432,
      "byteOffset": 0,
      "target": 34962
    },
    {
      "buffer": 0,
      "byteLength": 18432,
      "byteOffset": 18432,
      "target": 34962
    },
    {
      "buffer": 0,
      "byteLength": 12288,
      "byteOffset": 36864,
      "target": 34962
    },
    {
      "buffer": 0,
      "byteLength": 4584,
      "byteOffset": 49152,
      "target": 34963
    },
    {
      "buffer": 0,
      "byteLength": 720,
      "byteOffset": 53736,
      "target": 34962
    },
    {
      "buffer": 0,
      "byteLength": 720,
      "byteOffset": 54456,
      "target": 34962
    },
    {
      "buffer": 0,
      "byteLength": 480,
      "byteOffset": 55176,
      "target": 34962
    },
    {
      "buffer": 0,
      "byteLength": 696,
      "byteOffset": 55656,
      "target": 34963
    },
    {
      "buffer": 0,
      "byteLength": 960,
      "byteOffset": 56352,
      "target": 34962
    },
    {
      "buffer": 0,
      "byteLength": 960,
      "byteOffset": 57312,
      "target": 34962
    },
    {
      "buffer": 0,
      "byteLength": 640,
      "byteOffset": 58272,
      "target": 34962
    },
    {
      "buffer": 0,
      "byteLength": 936,
      "byteOffset": 58912,
      "target": 34963
    },
    {
      "buffer": 0,
      "byteLength": 1152,
      "byteOffset": 59848,
      "target": 34962
    },
    {
      "buffer": 0,
      "byteLength": 1152,
      "byteOffset": 61000,
      "target": 34962
    },
    {
      "buffer": 0,
      "byteLength": 768,
      "byteOffset": 62152,
      "target": 34962
    },
    {
      "buffer": 0,
      "byteLength": 1128,
      "byteOffset": 62920,
      "target": 34963
    },
    {
      "buffer": 0,
      "byteLength": 168,
      "byteOffset": 64048,
      "target": 34962
    },
    {
      "buffer": 0,
      "byteLength": 168,
      "byteOffset": 64216,
      "target": 34962
    },
    {
      "buffer": 0,
      "byteLength": 112,
      "byteOffset": 64384,
      "target": 34962
    },
    {
      "buffer": 0,
      "byteLength": 72,
      "byteOffset": 64496,
      "target": 34963
    },
    {
      "buffer": 0,
      "byteLength": 864,
      "byteOffset": 64568,
      "target": 34962
    },
    {
      "buffer": 0,
      "byteLength": 864,
      "byteOffset": 65432,
      "target": 34962
    },
    {
      "buffer": 0,
      "byteLength": 576,
      "byteOffset": 66296,
      "target": 34962
    },
    {
      "buffer": 0,
      "byteLength": 780,
      "byteOffset": 66872,
      "target": 34963
    },
    {
      "buffer": 0,
      "byteLength": 3072,
      "byteOffset": 67652,
      "target": 34962
    },
    {
      "buffer": 0,
      "byteLength": 3072,
      "byteOffset": 70724,
      "target": 34962
    },
    {
      "buffer": 0,
      "byteLength": 2048,
      "byteOffset": 73796,
      "target": 34962
    },
    {
      "buffer": 0,
      "byteLength": 3048,
      "byteOffset": 75844,
      "target": 34963
    }
  ],
  "buffers": [
    {
      "uri": "cupncookie_data.bin",
      "byteLength": 78892
    }
  ]
}